<svg xmlns="http://www.w3.org/2000/svg" viewBox="0 0 100 100">
  <circle cx="50" cy="50" r="50" fill="#000"/>
  <path d="M15 72V32c0-1 0-2 0.2-2.5 0.8-4.5 4.5-17.5 19.5-19.9 0 0 11-1.4 19.4 7 0.1 0.1 0.1 0.3 0 0.4l-8.5 8.5c-0.1 0.1-0.3 0.1-0.4 0-0.8-0.8-3.5-3.2-9-3.2-6.2 0-8.2 7.2-8.3 7.7v45.8c0 0.8 0.2 1.6 0.6 2.3 1 1.7 3.4 4.7 8.3 4.7 0.2 0 3.9 0.2 7.5-3.4L59.8 62c1-1 1.6-2.3 1.8-3.6v-12.7c0-0.7-0.2-1.4-0.6-2-0.6-0.9-1.9-2.6-3-3.6-0.1-0.1-0.1-0.3 0-0.5l8.9-8.9c0.1-0.1 0.3-0.1 0.4 0 1 0.8 4.6 3.9 6.8 9.6 0.5 1.3 0.7 2.7 0.7 4.2v13.7c0 4.6-1.7 9.1-4.9 12.5L51.5 88.1c-5.3 5.3-12.9 7.6-20.2 5.8-1.3-0.3-2.7-0.8-4.1-1.4-0.2-0.1-6.6-2.5-11.1-11.6C15.3 78.8 15 75.5 15 72z" fill="#fff"/>
  <path d="M85 28v45.4c0 1 0 2-0.2 2.5-0.8 4.5-4.5 17.5-19.5 19.9 0 0-11 1.4-19.4-7-0.1-0.1-0.1-0.3 0-0.4l8.5-8.5c0.1-0.1 0.3-0.1 0.4 0 0.8 0.8 3.5 3.2 9 3.2 6.2 0 8.2-7.2 8.3-7.7V28.6c0-0.8-0.2-1.6-0.6-2.3-1-1.7-3.4-4.7-8.3-4.7-0.2 0-3.9-0.2-7.5 3.4L40.2 41.4c-1 1-1.6 2.3-1.8 3.6v12.7c0 0.7 0.2 1.4 0.6 2 0.6 0.9 1.9 2.6 3 3.6 0.1 0.1 0.1 0.3 0 0.5l-8.9 8.9c-0.1 0.1-0.3 0.1-0.4 0-1-0.8-4.6-3.9-6.8-9.6-0.5-1.3-0.7-2.7-0.7-4.2V44.2c0-4.6 1.7-9.1 4.9-12.5L48.5 15c5.3-5.3 12.9-7.6 20.2-5.8 1.3 0.3 2.7 0.8 4.1 1.4 0.2 0.1 6.6 2.5 11.1 11.6C84.7 24.3 85 27.6 85 28z" fill="#fff"/>
</svg>
