<svg xmlns="http://www.w3.org/2000/svg" viewBox="0 0 32 32" width="32" height="32">
  <!-- White background square -->
  <rect width="32" height="32" fill="#ffffff"/>
  <!-- Fico logo in black, centered and sized appropriately -->
  <g transform="translate(4, 4) scale(0.75)">
    <path d="M3 23V8c0-0.3 0-0.6 0.1-0.8 0.3-1.4 1.4-5.6 6.2-6.3 0 0 3.5-0.4 6.2 2.2 0 0 0 0.1 0 0.1L13 5.7c0 0-0.1 0-0.1 0-0.3-0.3-1.1-1-2.9-1-2 0-2.6 2.3-2.6 2.4v14.6c0 0.3 0.1 0.5 0.2 0.7 0.3 0.5 1.1 1.5 2.6 1.5 0.1 0 1.2 0.1 2.4-1.1L18.3 17c0.3-0.3 0.5-0.7 0.6-1.1v-4.1c0-0.2-0.1-0.4-0.2-0.6-0.2-0.3-0.6-0.8-0.9-1.1 0 0 0-0.1 0-0.2l2.8-2.8c0 0 0.1 0 0.1 0 0.3 0.3 1.5 1.2 2.2 3.1 0.2 0.4 0.2 0.9 0.2 1.3v4.4c0 1.5-0.5 2.9-1.6 4L15.9 26.5c-1.7 1.7-4.1 2.4-6.4 1.8-0.4-0.1-0.9-0.3-1.3-0.4-0.1 0-2.1-0.8-3.5-3.7C3.1 22.8 3 21.3 3 23z" fill="#000"/>
    <path d="M29 9v14.5c0 0.3 0 0.6-0.1 0.8-0.3 1.4-1.4 5.6-6.2 6.3 0 0-3.5 0.4-6.2-2.2 0 0 0-0.1 0-0.1L19 25.8c0 0 0.1 0 0.1 0 0.3 0.3 1.1 1 2.9 1 2 0 2.6-2.3 2.6-2.4V9.8c0-0.3-0.1-0.5-0.2-0.7-0.3-0.5-1.1-1.5-2.6-1.5-0.1 0-1.2-0.1-2.4 1.1L13.7 15.5c-0.3 0.3-0.5 0.7-0.6 1.1v4.1c0 0.2 0.1 0.4 0.2 0.6 0.2 0.3 0.6 0.8 0.9 1.1 0 0 0 0.1 0 0.2l-2.8 2.8c0 0-0.1 0-0.1 0-0.3-0.3-1.5-1.2-2.2-3.1-0.2-0.4-0.2-0.9-0.2-1.3v-4.4c0-1.5 0.5-2.9 1.6-4L16.1 6c1.7-1.7 4.1-2.4 6.4-1.8 0.4 0.1 0.9 0.3 1.3 0.4 0.1 0 2.1 0.8 3.5 3.7C28.9 9.7 29 11.2 29 9z" fill="#000"/>
  </g>
</svg>
