<svg version="1.1" id="Layer_1" xmlns="http://www.w3.org/2000/svg" xmlns:xlink="http://www.w3.org/1999/xlink" x="0px" y="0px"
	 width="100%" viewBox="0 0 3470 2776" enable-background="new 0 0 3470 2776" xml:space="preserve">
<path fill="#000000" opacity="1.000000" stroke="none" 
	d="
M2494.000000,2778.000000 
	C1662.666870,2778.000000 832.333801,2778.000000 2.000557,2778.000000 
	C2.000371,1852.667236 2.000371,927.334351 2.000186,2.001178 
	C1158.665771,2.000785 2315.331543,2.000785 3471.998047,2.000392 
	C3471.998535,927.332214 3471.998535,1852.664429 3471.999268,2777.998291 
	C3146.333252,2778.000000 2820.666748,2778.000000 2494.000000,2778.000000 
M2311.470947,2598.419189 
	C2314.508057,2597.085205 2317.592529,2595.848633 2320.575439,2594.402832 
	C2362.485596,2574.086670 2403.361328,2551.890625 2442.974365,2527.367676 
	C2520.437744,2479.413330 2592.003174,2423.810303 2657.586914,2360.650391 
	C2679.856201,2339.204102 2700.812500,2316.352539 2721.752686,2293.577148 
	C2762.332031,2249.441650 2798.525879,2201.809082 2831.802490,2151.997070 
	C2870.294189,2094.378418 2903.603027,2033.826294 2931.926514,1970.583862 
	C2967.329834,1891.533325 2994.337646,1809.699707 3012.358398,1724.944336 
	C3021.185547,1683.428955 3028.738281,1641.697021 3032.333984,1599.357666 
	C3034.969482,1568.328247 3038.542725,1537.301270 3039.349365,1506.212280 
	C3040.470459,1463.022461 3040.759277,1419.739624 3036.334473,1376.628418 
	C3033.697021,1350.932129 3031.490479,1325.180542 3028.263428,1299.557861 
	C3021.206055,1243.524292 3009.374512,1188.436401 2994.098389,1134.079346 
	C2975.096436,1066.463623 2950.669922,1000.866516 2920.410889,937.484863 
	C2891.709473,877.366211 2858.595947,819.795227 2820.767578,764.900574 
	C2780.296387,706.170837 2735.382812,651.097839 2685.429688,600.260498 
	C2662.130371,576.548828 2637.658936,553.932556 2612.941162,531.683472 
	C2573.858887,496.504425 2532.002686,464.779358 2488.531494,435.214569 
	C2423.760986,391.164001 2355.479736,353.410095 2283.839111,321.744934 
	C2218.708008,292.957092 2151.653564,269.641754 2082.703857,251.882309 
	C2025.492676,237.146301 1967.558105,226.346924 1908.838623,219.369370 
	C1871.606567,214.945190 1834.283569,211.617310 1796.896729,210.663620 
	C1751.713745,209.511047 1706.421753,209.022018 1661.315918,213.675552 
	C1629.694580,216.937927 1598.028809,219.862961 1566.484619,223.761307 
	C1515.060425,230.116455 1464.513550,241.126785 1414.480103,254.439499 
	C1335.968506,275.329529 1260.018188,303.315063 1186.768188,338.425598 
	C1123.085938,368.950165 1062.231567,404.414062 1004.344055,444.933136 
	C948.952942,483.704926 896.787903,526.435791 848.274841,573.481201 
	C826.555542,594.543457 806.005310,616.848877 785.516907,639.134766 
	C745.166077,683.025574 709.144348,730.355286 676.012024,779.875549 
	C640.263672,833.305908 609.023132,889.283325 581.921997,947.589294 
	C558.226257,998.568726 538.286316,1050.946655 521.633972,1104.643188 
	C507.065887,1151.618896 495.143372,1199.242310 486.793854,1247.658325 
	C480.944000,1281.579712 476.487976,1315.775757 472.553925,1349.980713 
	C470.056427,1371.695557 469.056183,1393.635010 468.446960,1415.503418 
	C467.298096,1456.741577 466.196899,1498.010254 469.657104,1539.214600 
	C471.625580,1562.655518 473.536957,1586.102173 475.687988,1609.526611 
	C479.301117,1648.872925 486.343384,1687.723877 494.714447,1726.251099 
	C514.740417,1818.419678 544.722412,1907.339111 585.153137,1992.598999 
	C616.562927,2058.835449 653.299133,2122.003418 695.761719,2181.830322 
	C749.487366,2257.526611 810.705261,2326.569824 879.515381,2388.808838 
	C917.743530,2423.386475 958.105957,2455.357178 1000.263611,2485.088867 
	C1068.411621,2533.149902 1140.527466,2574.147949 1216.599243,2608.257812 
	C1296.845581,2644.239258 1379.862549,2671.842285 1465.677734,2691.081787 
	C1510.343506,2701.095459 1555.351196,2709.278076 1600.872803,2713.913086 
	C1637.132812,2717.605225 1673.530151,2721.098877 1709.932007,2721.981201 
	C1767.742798,2723.383057 1825.642456,2723.420410 1883.230225,2716.314453 
	C1911.828369,2712.785400 1940.542603,2709.917725 1968.958130,2705.251221 
	C2011.176025,2698.318359 2052.989014,2689.258057 2094.330322,2678.062256 
	C2168.553467,2657.961670 2240.574951,2631.913086 2311.470947,2598.419189 
z"/>
<path fill="#FFFFFF" opacity="1.000000" stroke="none" 
	d="
M2310.821533,2598.804932 
	C2240.574951,2631.913086 2168.553467,2657.961670 2094.330322,2678.062256 
	C2052.989014,2689.258057 2011.176025,2698.318359 1968.958130,2705.251221 
	C1940.542603,2709.917725 1911.828369,2712.785400 1883.230225,2716.314453 
	C1825.642456,2723.420410 1767.742798,2723.383057 1709.932007,2721.981201 
	C1673.530151,2721.098877 1637.132812,2717.605225 1600.872803,2713.913086 
	C1555.351196,2709.278076 1510.343506,2701.095459 1465.677734,2691.081787 
	C1379.862549,2671.842285 1296.845581,2644.239258 1216.599243,2608.257812 
	C1140.527466,2574.147949 1068.411621,2533.149902 1000.263611,2485.088867 
	C958.105957,2455.357178 917.743530,2423.386475 879.515381,2388.808838 
	C810.705261,2326.569824 749.487366,2257.526611 695.761719,2181.830322 
	C653.299133,2122.003418 616.562927,2058.835449 585.153137,1992.598999 
	C544.722412,1907.339111 514.740417,1818.419678 494.714447,1726.251099 
	C486.343384,1687.723877 479.301117,1648.872925 475.687988,1609.526611 
	C473.536957,1586.102173 471.625580,1562.655518 469.657104,1539.214600 
	C466.196899,1498.010254 467.298096,1456.741577 468.446960,1415.503418 
	C469.056183,1393.635010 470.056427,1371.695557 472.553925,1349.980713 
	C476.487976,1315.775757 480.944000,1281.579712 486.793854,1247.658325 
	C495.143372,1199.242310 507.065887,1151.618896 521.633972,1104.643188 
	C538.286316,1050.946655 558.226257,998.568726 581.921997,947.589294 
	C609.023132,889.283325 640.263672,833.305908 676.012024,779.875549 
	C709.144348,730.355286 745.166077,683.025574 785.516907,639.134766 
	C806.005310,616.848877 826.555542,594.543457 848.274841,573.481201 
	C896.787903,526.435791 948.952942,483.704926 1004.344055,444.933136 
	C1062.231567,404.414062 1123.085938,368.950165 1186.768188,338.425598 
	C1260.018188,303.315063 1335.968506,275.329529 1414.480103,254.439499 
	C1464.513550,241.126785 1515.060425,230.116455 1566.484619,223.761307 
	C1598.028809,219.862961 1629.694580,216.937927 1661.315918,213.675552 
	C1706.421753,209.022018 1751.713745,209.511047 1796.896729,210.663620 
	C1834.283569,211.617310 1871.606567,214.945190 1908.838623,219.369370 
	C1967.558105,226.346924 2025.492676,237.146301 2082.703857,251.882309 
	C2151.653564,269.641754 2218.708008,292.957092 2283.839111,321.744934 
	C2355.479736,353.410095 2423.760986,391.164001 2488.531494,435.214569 
	C2532.002686,464.779358 2573.858887,496.504425 2612.941162,531.683472 
	C2637.658936,553.932556 2662.130371,576.548828 2685.429688,600.260498 
	C2735.382812,651.097839 2780.296387,706.170837 2820.767578,764.900574 
	C2858.595947,819.795227 2891.709473,877.366211 2920.410889,937.484863 
	C2950.669922,1000.866516 2975.096436,1066.463623 2994.098389,1134.079346 
	C3009.374512,1188.436401 3021.206055,1243.524292 3028.263428,1299.557861 
	C3031.490479,1325.180542 3033.697021,1350.932129 3036.334473,1376.628418 
	C3040.759277,1419.739624 3040.470459,1463.022461 3039.349365,1506.212280 
	C3038.542725,1537.301270 3034.969482,1568.328247 3032.333984,1599.357666 
	C3028.738281,1641.697021 3021.185547,1683.428955 3012.358398,1724.944336 
	C2994.337646,1809.699707 2967.329834,1891.533325 2931.926514,1970.583862 
	C2903.603027,2033.826294 2870.294189,2094.378418 2831.802490,2151.997070 
	C2798.525879,2201.809082 2762.332031,2249.441650 2721.752686,2293.577148 
	C2700.812500,2316.352539 2679.856201,2339.204102 2657.586914,2360.650391 
	C2592.003174,2423.810303 2520.437744,2479.413330 2442.974365,2527.367676 
	C2403.361328,2551.890625 2362.485596,2574.086670 2320.575439,2594.402832 
	C2317.592529,2595.848633 2314.508057,2597.085205 2310.821533,2598.804932 
M1355.929443,1280.029419 
	C1356.907959,1279.654297 1357.886597,1279.279175 1360.862061,1279.166870 
	C1372.296753,1279.166870 1383.731445,1279.166870 1395.166138,1279.166870 
	C1393.406372,1282.987183 1391.210571,1284.839600 1388.950928,1286.610718 
	C1370.331909,1301.203125 1351.767212,1315.866455 1333.040894,1330.319946 
	C1325.572388,1336.084229 1320.925781,1343.084106 1319.271484,1352.592041 
	C1316.303955,1369.647705 1312.572510,1386.570312 1309.171143,1403.550781 
	C1282.353638,1537.431274 1255.528564,1671.310059 1228.735474,1805.195557 
	C1225.332886,1822.198242 1230.781250,1828.809082 1248.222046,1829.144897 
	C1248.555176,1829.151245 1248.888550,1829.150146 1249.221802,1829.150146 
	C1292.544800,1829.159668 1335.867920,1829.086792 1379.190430,1829.242310 
	C1388.641602,1829.276245 1396.562378,1826.429565 1403.938354,1820.431396 
	C1419.703003,1807.611694 1435.867432,1795.282837 1451.914062,1782.811890 
	C1453.595825,1781.505127 1455.583984,1780.592529 1457.923096,1779.204102 
	C1457.923096,1784.413940 1457.804932,1788.671021 1457.943481,1792.919556 
	C1458.556396,1811.708374 1470.105713,1825.047363 1488.663452,1828.005127 
	C1494.228516,1828.892090 1499.942383,1829.113037 1505.591553,1829.155884 
	C1522.252686,1829.282104 1538.915649,1829.147949 1555.577881,1829.148071 
	C1661.217651,1829.148804 1766.857666,1829.092041 1872.497192,1829.267700 
	C1883.029297,1829.285156 1891.819214,1826.468018 1899.987549,1819.669067 
	C1913.552612,1808.377930 1927.700195,1797.785278 1941.653564,1786.964478 
	C1943.316406,1785.674805 1945.298828,1784.797241 1947.930542,1783.264160 
	C1947.930542,1786.720459 1947.881226,1789.006958 1947.937988,1791.290649 
	C1948.465698,1812.497070 1960.128174,1825.689453 1981.026489,1828.262085 
	C1987.284302,1829.032593 1993.652710,1829.143188 1999.970825,1829.149170 
	C2065.288574,1829.210327 2130.606201,1829.191528 2195.923828,1829.187866 
	C2258.907959,1829.184326 2321.892578,1829.099487 2384.876465,1829.211670 
	C2401.830322,1829.241943 2416.820557,1824.540161 2430.258545,1813.909302 
	C2468.145996,1783.936035 2506.307617,1754.309570 2544.296875,1724.464600 
	C2546.548828,1722.695435 2548.233643,1720.204712 2550.030518,1717.994019 
	C2550.030518,1717.994019 2549.974609,1718.146118 2551.360352,1717.979614 
	C2552.505127,1717.279419 2553.649902,1716.579224 2556.028564,1715.575073 
	C2574.607910,1702.917114 2585.600586,1685.781128 2589.222900,1663.289673 
	C2592.921387,1640.325684 2598.047852,1617.590088 2602.627197,1594.770264 
	C2622.975098,1493.367310 2643.427490,1391.985474 2663.612061,1290.550171 
	C2665.937256,1278.864502 2667.906494,1266.912964 2668.121582,1255.049927 
	C2668.414795,1238.862915 2658.020996,1226.453247 2642.344482,1222.473633 
	C2636.610107,1221.017822 2630.509766,1220.425049 2624.575439,1220.419922 
	C2495.023926,1220.305908 2365.471191,1220.591797 2235.921631,1220.088867 
	C2212.439941,1219.997803 2193.048340,1227.245361 2175.394775,1244.381226 
	C2175.502441,1244.871460 2175.609863,1245.361694 2175.781494,1245.650879 
	C2175.781494,1245.650879 2175.630615,1245.503540 2174.213135,1245.265259 
	C2154.435547,1260.702026 2134.657959,1276.138672 2114.436279,1289.996094 
	C2117.318604,1274.347900 2120.142334,1258.688477 2123.100098,1243.054565 
	C2126.018799,1227.626465 2120.135010,1220.330444 2104.247070,1220.327759 
	C1984.462646,1220.307129 1864.677368,1220.603760 1744.894775,1220.132568 
	C1721.747803,1220.041626 1702.810181,1227.620239 1685.404297,1244.367920 
	C1685.509155,1244.859863 1685.614136,1245.351807 1685.771484,1245.640747 
	C1685.771484,1245.640747 1685.619141,1245.496704 1684.201904,1245.276245 
	C1663.341797,1261.619385 1642.481567,1277.962524 1620.202148,1293.825317 
	C1614.777344,1292.663330 1609.366089,1290.577637 1603.925293,1290.497314 
	C1578.718262,1290.125122 1553.501953,1290.442627 1528.291260,1290.235474 
	C1516.737549,1290.140381 1513.447998,1286.606079 1513.708740,1274.173584 
	C1542.993896,1251.333740 1572.313965,1228.538452 1601.549805,1205.635620 
	C1616.679321,1193.783325 1631.659302,1181.740234 1647.926147,1169.564697 
	C1656.467896,1163.854004 1660.702393,1155.841675 1662.573853,1145.706055 
	C1667.222046,1120.530640 1672.617310,1095.493408 1677.705078,1070.399048 
	C1679.621338,1060.947998 1681.646240,1051.516724 1683.392822,1042.034180 
	C1685.944214,1028.181519 1680.052246,1020.878906 1666.157837,1020.370789 
	C1665.492432,1020.346436 1664.825562,1020.366333 1664.159302,1020.366394 
	C1616.535156,1020.368530 1568.910767,1020.464050 1521.287231,1020.296753 
	C1511.389771,1020.261963 1503.013184,1023.022949 1494.987793,1031.142456 
	C1483.481323,1039.906494 1471.974854,1048.670654 1460.760742,1055.509521 
	C1461.388184,1051.905640 1461.936768,1048.285889 1462.659180,1044.701050 
	C1464.298828,1036.564087 1466.375000,1028.498047 1467.631958,1020.304749 
	C1469.500244,1008.127441 1463.633667,1001.167297 1451.403198,1000.414246 
	C1448.086914,1000.210083 1444.750854,1000.306946 1441.423828,1000.307739 
	C1371.228149,1000.323242 1301.026855,1000.856812 1230.839966,1000.081482 
	C1207.001953,999.818176 1187.324707,1007.040894 1169.272217,1024.165894 
	C1129.403076,1055.368042 1089.640015,1086.706909 1049.610352,1117.701660 
	C1034.636597,1129.295776 1025.830078,1144.042480 1022.188538,1162.564575 
	C1009.730225,1225.932129 996.899841,1289.226440 984.232239,1352.552979 
	C955.632507,1495.525635 927.042114,1638.500000 898.459778,1781.476074 
	C896.632446,1790.616943 894.694763,1799.743164 893.182495,1808.937622 
	C891.134277,1821.390503 896.377258,1827.891357 908.965393,1829.042847 
	C910.289429,1829.164062 911.627502,1829.165894 912.959045,1829.165894 
	C956.934814,1829.166870 1000.910645,1829.122314 1044.886353,1829.188354 
	C1053.551025,1829.201416 1061.027832,1826.765381 1067.909180,1821.241211 
	C1086.348755,1806.437988 1105.135010,1792.067505 1123.718384,1777.442383 
	C1148.046387,1758.296265 1172.311646,1739.070312 1197.869507,1719.595581 
	C1206.447144,1713.908325 1210.817383,1705.881104 1212.568359,1695.742920 
	C1215.283569,1680.020996 1218.822144,1664.442017 1221.964478,1648.792969 
	C1235.126343,1583.246582 1248.282959,1517.699097 1261.414307,1452.146484 
	C1265.398315,1432.258301 1269.348145,1412.362793 1273.213257,1392.451294 
	C1276.025757,1377.962280 1270.251831,1370.758911 1255.619751,1370.293091 
	C1250.961060,1370.144775 1246.299561,1370.083740 1242.211060,1368.729004 
	C1256.328735,1357.670898 1270.479004,1346.654297 1284.556396,1335.545288 
	C1308.002441,1317.042725 1331.401611,1298.480835 1355.929443,1280.029419 
z"/>
<path fill="#3E1718" opacity="1.000000" stroke="none" 
	d="
M2550.182373,1718.049683 
	C2548.233643,1720.204712 2546.548828,1722.695435 2544.296875,1724.464600 
	C2506.307617,1754.309570 2468.145996,1783.936035 2430.258545,1813.909302 
	C2416.820557,1824.540161 2401.830322,1829.241943 2384.876465,1829.211670 
	C2321.892578,1829.099487 2258.907959,1829.184326 2195.923828,1829.187866 
	C2130.606201,1829.191528 2065.288574,1829.210327 1999.970825,1829.149170 
	C1993.652710,1829.143188 1987.284302,1829.032593 1981.026489,1828.262085 
	C1960.128174,1825.689453 1948.465698,1812.497070 1947.937988,1791.290649 
	C1947.881226,1789.006958 1947.930542,1786.720459 1947.930542,1783.264160 
	C1945.298828,1784.797241 1943.316406,1785.674805 1941.653564,1786.964478 
	C1927.700195,1797.785278 1913.552612,1808.377930 1899.987549,1819.669067 
	C1891.819214,1826.468018 1883.029297,1829.285156 1872.497192,1829.267700 
	C1766.857666,1829.092041 1661.217651,1829.148804 1555.577881,1829.148071 
	C1538.915649,1829.147949 1522.252686,1829.282104 1505.591553,1829.155884 
	C1499.942383,1829.113037 1494.228516,1828.892090 1488.663452,1828.005127 
	C1470.105713,1825.047363 1458.556396,1811.708374 1457.943481,1792.919556 
	C1457.804932,1788.671021 1457.923096,1784.413940 1457.923096,1779.204102 
	C1455.583984,1780.592529 1453.595825,1781.505127 1451.914062,1782.811890 
	C1435.867432,1795.282837 1419.703003,1807.611694 1403.938354,1820.431396 
	C1396.562378,1826.429565 1388.641602,1829.276245 1379.190430,1829.242310 
	C1335.867920,1829.086792 1292.544800,1829.159668 1249.221802,1829.150146 
	C1248.888550,1829.150146 1248.555176,1829.151245 1248.222046,1829.144897 
	C1230.781250,1828.809082 1225.332886,1822.198242 1228.735474,1805.195557 
	C1255.528564,1671.310059 1282.353638,1537.431274 1309.171143,1403.550781 
	C1312.572510,1386.570312 1316.303955,1369.647705 1319.271484,1352.592041 
	C1320.925781,1343.084106 1325.572388,1336.084229 1333.040894,1330.319946 
	C1351.767212,1315.866455 1370.331909,1301.203125 1388.950928,1286.610718 
	C1391.210571,1284.839600 1393.406372,1282.987183 1395.166138,1279.166870 
	C1383.731445,1279.166870 1372.296753,1279.166870 1360.055420,1278.547485 
	C1362.695435,1272.061646 1366.870972,1266.487671 1369.374634,1260.243164 
	C1371.683105,1254.485352 1372.355591,1248.036377 1373.467773,1241.841431 
	C1375.925659,1228.151978 1370.251709,1221.019775 1356.150391,1220.048950 
	C1351.183350,1219.707031 1346.188965,1219.760010 1341.337158,1218.849731 
	C1342.360352,1212.976807 1343.253418,1207.886841 1344.531372,1200.603271 
	C1335.817749,1207.380371 1328.698975,1212.916992 1320.843506,1218.333740 
	C1314.052124,1216.921387 1312.242920,1212.014893 1312.106445,1207.028809 
	C1311.890015,1199.120361 1312.049072,1191.063354 1313.351807,1183.287354 
	C1314.935059,1173.835083 1318.262939,1164.687012 1320.128418,1155.267090 
	C1323.083130,1140.346313 1331.943726,1132.530151 1346.724609,1129.578003 
	C1360.843018,1126.758301 1374.436768,1130.213501 1388.268921,1130.959351 
	C1399.517334,1131.565796 1410.879395,1132.562744 1422.044922,1131.632324 
	C1439.155396,1130.206543 1448.451782,1120.719482 1450.590576,1105.101807 
	C1452.786987,1089.062744 1457.088257,1073.311768 1460.468384,1057.434814 
	C1471.974854,1048.670654 1483.481323,1039.906494 1495.460693,1031.655762 
	C1494.689209,1036.649536 1493.180420,1041.075928 1492.249634,1045.620728 
	C1489.387695,1059.593750 1486.753174,1073.613281 1484.019775,1087.612671 
	C1479.948486,1108.463623 1475.662354,1129.275513 1471.864990,1150.176270 
	C1469.370605,1163.905029 1474.754028,1169.991211 1488.905884,1170.136719 
	C1503.555054,1170.287476 1518.206543,1170.269409 1532.856812,1170.224121 
	C1570.806885,1170.106812 1608.756836,1169.933960 1646.706787,1169.783203 
	C1631.659302,1181.740234 1616.679321,1193.783325 1601.549805,1205.635620 
	C1572.313965,1228.538452 1542.993896,1251.333740 1512.994385,1273.567871 
	C1514.309448,1260.526733 1516.993530,1248.152344 1518.157959,1235.636475 
	C1519.063843,1225.899048 1514.656738,1221.444946 1504.915039,1220.497681 
	C1498.641968,1219.887695 1492.267212,1220.394775 1485.942261,1220.232666 
	C1471.222046,1219.855591 1460.477783,1228.319092 1457.561279,1243.862061 
	C1449.722656,1285.636230 1440.999634,1327.244751 1432.611938,1368.915771 
	C1424.545288,1408.990723 1416.393799,1449.048584 1408.398071,1489.137695 
	C1398.523804,1538.645508 1388.793701,1588.182007 1378.956665,1637.697144 
	C1374.879517,1658.218872 1370.771851,1678.735474 1366.514771,1699.220459 
	C1364.069092,1710.989258 1370.944580,1721.705444 1383.319336,1720.191040 
	C1384.629639,1720.030640 1385.980713,1720.218750 1387.312866,1720.218140 
	C1431.623169,1720.198486 1475.933594,1720.190674 1520.243896,1720.144775 
	C1535.669312,1720.128784 1544.335938,1713.216431 1547.402344,1697.923218 
	C1551.906860,1675.457642 1555.951172,1652.900146 1560.424072,1630.427979 
	C1571.771240,1573.419922 1583.233276,1516.434692 1594.676880,1459.445801 
	C1604.228516,1411.877441 1613.881226,1364.329102 1623.328979,1316.739990 
	C1624.822021,1309.219604 1625.627563,1301.518311 1621.621338,1294.305542 
	C1642.481567,1277.962524 1663.341797,1261.619385 1685.085205,1246.137207 
	C1682.860596,1255.733765 1678.674927,1264.247559 1676.822998,1273.241699 
	C1666.236084,1324.656860 1656.214111,1376.188110 1645.980957,1427.676147 
	C1636.334351,1476.213257 1626.669556,1524.746704 1617.001099,1573.279419 
	C1610.254761,1607.143799 1603.308350,1640.969849 1596.809082,1674.881592 
	C1593.696289,1691.124268 1599.210083,1712.953003 1624.434326,1718.989380 
	C1629.527222,1720.208252 1634.994751,1720.186890 1640.289673,1720.188965 
	C1764.900146,1720.240112 1889.510986,1720.089600 2014.120850,1720.354004 
	C2030.969482,1720.389771 2039.339478,1711.816528 2042.106201,1697.845825 
	C2047.782593,1669.182617 2053.863037,1640.598999 2059.509033,1611.930054 
	C2062.177002,1598.382446 2055.823486,1590.579834 2042.025757,1590.305176 
	C2027.370483,1590.013428 2012.704712,1590.291504 1998.045288,1590.142822 
	C1994.449951,1590.106445 1990.861572,1589.377197 1987.407837,1588.021118 
	C1999.626221,1526.291504 2011.706909,1465.507324 2024.178711,1402.754395 
	C2019.731445,1406.052002 2017.050903,1407.951904 2014.464233,1409.972046 
	C1997.138428,1423.502441 1979.672363,1436.860718 1962.596924,1450.700928 
	C1955.473145,1456.474731 1947.820923,1459.236938 1938.760620,1459.203857 
	C1899.117310,1459.059326 1859.473389,1459.064209 1819.884766,1458.285889 
	C1822.762817,1444.626709 1825.925049,1431.758911 1828.312012,1418.748901 
	C1830.645020,1406.032593 1831.524414,1393.029297 1834.224487,1380.405029 
	C1838.759277,1359.202393 1847.703125,1349.708496 1870.215454,1349.993286 
	C1919.125122,1350.612061 1968.047485,1350.242554 2016.964600,1350.257568 
	C2037.928833,1350.264038 2058.893555,1350.302490 2079.856934,1350.173462 
	C2093.823975,1350.087524 2102.406738,1343.365845 2105.718018,1330.059448 
	C2106.758301,1325.880493 2107.114258,1321.532227 2108.141846,1317.349487 
	C2110.260254,1308.726685 2112.620117,1300.163208 2114.880371,1291.575439 
	C2134.657959,1276.138672 2154.435547,1260.702026 2175.088867,1246.137329 
	C2172.553955,1257.711060 2168.435791,1268.247681 2165.891357,1279.151489 
	C2161.597900,1297.550537 2158.309814,1316.183838 2154.585938,1334.716064 
	C2147.063965,1372.150879 2139.509033,1409.579102 2132.012207,1447.018921 
	C2122.756592,1493.242065 2113.537354,1539.472290 2104.319824,1585.703125 
	C2098.414795,1615.321167 2092.188477,1644.881592 2086.789062,1674.591919 
	C2083.664551,1691.783325 2089.387939,1712.790771 2114.067383,1718.987549 
	C2118.195801,1720.024170 2122.638916,1720.117310 2126.937012,1720.122070 
	C2203.188721,1720.205811 2279.444580,1720.716553 2355.690674,1720.072510 
	C2420.520752,1719.524902 2485.397705,1722.828247 2550.182373,1718.049683 
z"/>
<path fill="#D12851" opacity="1.000000" stroke="none" 
	d="
M2550.106445,1718.021851 
	C2485.397705,1722.828247 2420.520752,1719.524902 2355.690674,1720.072510 
	C2279.444580,1720.716553 2203.188721,1720.205811 2126.937012,1720.122070 
	C2122.638916,1720.117310 2118.195801,1720.024170 2114.067383,1718.987549 
	C2089.387939,1712.790771 2083.664551,1691.783325 2086.789062,1674.591919 
	C2092.188477,1644.881592 2098.414795,1615.321167 2104.319824,1585.703125 
	C2113.537354,1539.472290 2122.756592,1493.242065 2132.012207,1447.018921 
	C2139.509033,1409.579102 2147.063965,1372.150879 2154.585938,1334.716064 
	C2158.309814,1316.183838 2161.597900,1297.550537 2165.891357,1279.151489 
	C2168.435791,1268.247681 2172.553955,1257.711060 2175.797607,1246.256470 
	C2175.630615,1245.503540 2175.781494,1245.650879 2176.224121,1245.755127 
	C2176.888428,1245.632080 2177.331299,1245.349365 2177.291016,1245.187378 
	C2177.141602,1244.588867 2176.832520,1244.030396 2176.583252,1243.456909 
	C2193.048340,1227.245361 2212.439941,1219.997803 2235.921631,1220.088867 
	C2365.471191,1220.591797 2495.023926,1220.305908 2624.575439,1220.419922 
	C2630.509766,1220.425049 2636.610107,1221.017822 2642.344482,1222.473633 
	C2658.020996,1226.453247 2668.414795,1238.862915 2668.121582,1255.049927 
	C2667.906494,1266.912964 2665.937256,1278.864502 2663.612061,1290.550171 
	C2643.427490,1391.985474 2622.975098,1493.367310 2602.627197,1594.770264 
	C2598.047852,1617.590088 2592.921387,1640.325684 2589.222900,1663.289673 
	C2585.600586,1685.781128 2574.607910,1702.917114 2554.685059,1715.833496 
	C2552.219238,1716.776489 2551.096924,1717.461304 2549.974609,1718.145996 
	C2549.974609,1718.146118 2550.030518,1717.994019 2550.106445,1718.021851 
M2294.411377,1470.013306 
	C2288.435791,1470.070190 2282.459961,1470.167114 2276.484375,1470.177124 
	C2254.906006,1470.212891 2233.324951,1470.010986 2211.750000,1470.298462 
	C2192.257568,1470.557983 2185.844971,1479.486084 2183.431641,1492.289551 
	C2179.999512,1510.500122 2175.843262,1528.573120 2172.166016,1546.739258 
	C2170.592285,1554.512085 2169.445801,1562.371460 2167.900391,1571.871582 
	C2164.842285,1582.827881 2173.421143,1590.638062 2183.830078,1590.358521 
	C2196.405029,1590.020874 2208.997070,1590.385254 2221.581299,1590.332886 
	C2250.050293,1590.214478 2278.519287,1590.026733 2308.977295,1590.119751 
	C2339.935547,1590.151123 2370.894531,1590.297974 2401.852051,1590.163330 
	C2416.431641,1590.099976 2424.720703,1583.183838 2427.733154,1568.912476 
	C2430.132812,1557.545288 2432.071777,1546.081787 2434.357178,1534.689453 
	C2445.194580,1480.666016 2456.068359,1426.649658 2466.957520,1372.636719 
	C2469.934326,1357.872681 2464.131836,1350.583740 2448.786621,1350.280151 
	C2439.468750,1350.095825 2430.144043,1350.228760 2420.822510,1350.228638 
	C2398.852051,1350.228271 2376.881348,1350.144043 2354.911621,1350.265991 
	C2338.978027,1350.354492 2331.914062,1357.825684 2326.769043,1371.179810 
	C2326.295166,1372.409790 2326.065430,1373.743408 2325.809082,1375.046021 
	C2324.209473,1383.178223 2322.153076,1391.256226 2321.147217,1399.462524 
	C2318.684082,1419.559082 2316.084229,1439.598755 2308.697754,1459.649292 
	C2304.577881,1463.063965 2300.458008,1466.478638 2294.411377,1470.013306 
z"/>
<path fill="#D12851" opacity="1.000000" stroke="none" 
	d="
M2114.658203,1290.785645 
	C2112.620117,1300.163208 2110.260254,1308.726685 2108.141846,1317.349487 
	C2107.114258,1321.532227 2106.758301,1325.880493 2105.718018,1330.059448 
	C2102.406738,1343.365845 2093.823975,1350.087524 2079.856934,1350.173462 
	C2058.893555,1350.302490 2037.928833,1350.264038 2016.964600,1350.257568 
	C1968.047485,1350.242554 1919.125122,1350.612061 1870.215454,1349.993286 
	C1847.703125,1349.708496 1838.759277,1359.202393 1834.224487,1380.405029 
	C1831.524414,1393.029297 1830.645020,1406.032593 1828.312012,1418.748901 
	C1825.925049,1431.758911 1822.762817,1444.626709 1819.306030,1458.650879 
	C1814.567993,1463.133667 1810.463867,1466.522583 1805.395752,1469.997314 
	C1776.543213,1470.115234 1748.654297,1470.080200 1720.766113,1470.206177 
	C1705.090210,1470.276978 1696.980347,1476.786011 1693.475830,1492.204102 
	C1690.760254,1504.150879 1688.328491,1516.166016 1685.982178,1528.191895 
	C1683.259155,1542.148315 1680.767456,1556.150024 1678.043457,1570.973145 
	C1677.218750,1584.906860 1681.388550,1589.742920 1693.892578,1590.321167 
	C1695.221802,1590.382812 1696.555908,1590.351318 1697.887695,1590.351440 
	C1791.111328,1590.360596 1884.335083,1590.382568 1977.558716,1590.317017 
	C1980.796021,1590.314819 1984.032959,1589.436523 1987.270020,1588.966553 
	C1990.861572,1589.377197 1994.449951,1590.106445 1998.045288,1590.142822 
	C2012.704712,1590.291504 2027.370483,1590.013428 2042.025757,1590.305176 
	C2055.823486,1590.579834 2062.177002,1598.382446 2059.509033,1611.930054 
	C2053.863037,1640.598999 2047.782593,1669.182617 2042.106201,1697.845825 
	C2039.339478,1711.816528 2030.969482,1720.389771 2014.120850,1720.354004 
	C1889.510986,1720.089600 1764.900146,1720.240112 1640.289673,1720.188965 
	C1634.994751,1720.186890 1629.527222,1720.208252 1624.434326,1718.989380 
	C1599.210083,1712.953003 1593.696289,1691.124268 1596.809082,1674.881592 
	C1603.308350,1640.969849 1610.254761,1607.143799 1617.001099,1573.279419 
	C1626.669556,1524.746704 1636.334351,1476.213257 1645.980957,1427.676147 
	C1656.214111,1376.188110 1666.236084,1324.656860 1676.822998,1273.241699 
	C1678.674927,1264.247559 1682.860596,1255.733765 1685.793823,1246.247314 
	C1685.619141,1245.496704 1685.771484,1245.640747 1686.237061,1245.761719 
	C1686.939575,1245.654785 1687.413696,1245.359375 1687.371460,1245.210205 
	C1687.197632,1244.595825 1686.866821,1244.026001 1686.593750,1243.439697 
	C1702.810181,1227.620239 1721.747803,1220.041626 1744.894775,1220.132568 
	C1864.677368,1220.603760 1984.462646,1220.307129 2104.247070,1220.327759 
	C2120.135010,1220.330444 2126.018799,1227.626465 2123.100098,1243.054565 
	C2120.142334,1258.688477 2117.318604,1274.347900 2114.658203,1290.785645 
z"/>
<path fill="#D12851" opacity="1.000000" stroke="none" 
	d="
M1341.207153,1219.632690 
	C1346.188965,1219.760010 1351.183350,1219.707031 1356.150391,1220.048950 
	C1370.251709,1221.019775 1375.925659,1228.151978 1373.467773,1241.841431 
	C1372.355591,1248.036377 1371.683105,1254.485352 1369.374634,1260.243164 
	C1366.870972,1266.487671 1362.695435,1272.061646 1359.057007,1278.416138 
	C1357.886597,1279.279175 1356.907959,1279.654297 1354.372803,1280.041260 
	C1329.173340,1280.106445 1305.530762,1280.185791 1281.888062,1280.206055 
	C1254.582642,1280.229614 1227.277222,1280.141479 1199.972046,1280.217407 
	C1183.172974,1280.264038 1175.057983,1286.668091 1170.750488,1302.993042 
	C1168.545898,1311.348511 1165.931641,1319.638062 1164.415894,1328.120728 
	C1162.905396,1336.573120 1161.863281,1345.227539 1161.837158,1353.797119 
	C1161.803467,1364.815552 1167.509521,1370.084229 1178.705200,1370.152588 
	C1199.682129,1370.280884 1220.661255,1370.058960 1241.639404,1369.982788 
	C1246.299561,1370.083740 1250.961060,1370.144775 1255.619751,1370.293091 
	C1270.251831,1370.758911 1276.025757,1377.962280 1273.213257,1392.451294 
	C1269.348145,1412.362793 1265.398315,1432.258301 1261.414307,1452.146484 
	C1248.282959,1517.699097 1235.126343,1583.246582 1221.964478,1648.792969 
	C1218.822144,1664.442017 1215.283569,1680.020996 1212.568359,1695.742920 
	C1210.817383,1705.881104 1206.447144,1713.908325 1196.248901,1719.814453 
	C1146.310059,1720.099854 1097.991821,1720.242920 1049.673706,1720.187866 
	C1034.596924,1720.170654 1029.101685,1713.578979 1031.795166,1698.834229 
	C1034.659790,1683.153564 1037.959229,1667.552002 1041.102417,1651.922607 
	C1048.042847,1617.411743 1055.077271,1582.919434 1061.941528,1548.393311 
	C1074.186523,1486.803101 1086.240845,1425.174683 1098.550537,1363.597412 
	C1108.908081,1311.784058 1119.608765,1260.039551 1129.984863,1208.229858 
	C1140.290405,1156.772827 1150.182129,1105.231689 1160.758789,1053.831055 
	C1162.535278,1045.197510 1166.933838,1037.113892 1169.958740,1028.717773 
	C1170.544800,1027.091187 1170.376709,1025.192871 1170.556396,1023.419922 
	C1187.324707,1007.040894 1207.001953,999.818176 1230.839966,1000.081482 
	C1301.026855,1000.856812 1371.228149,1000.323242 1441.423828,1000.307739 
	C1444.750854,1000.306946 1448.086914,1000.210083 1451.403198,1000.414246 
	C1463.633667,1001.167297 1469.500244,1008.127441 1467.631958,1020.304749 
	C1466.375000,1028.498047 1464.298828,1036.564087 1462.659180,1044.701050 
	C1461.936768,1048.285889 1461.388184,1051.905640 1460.614502,1056.472168 
	C1457.088257,1073.311768 1452.786987,1089.062744 1450.590576,1105.101807 
	C1448.451782,1120.719482 1439.155396,1130.206543 1422.044922,1131.632324 
	C1410.879395,1132.562744 1399.517334,1131.565796 1388.268921,1130.959351 
	C1374.436768,1130.213501 1360.843018,1126.758301 1346.724609,1129.578003 
	C1331.943726,1132.530151 1323.083130,1140.346313 1320.128418,1155.267090 
	C1318.262939,1164.687012 1314.935059,1173.835083 1313.351807,1183.287354 
	C1312.049072,1191.063354 1311.890015,1199.120361 1312.106445,1207.028809 
	C1312.242920,1212.014893 1314.052124,1216.921387 1321.448486,1218.917114 
	C1328.928955,1219.624390 1335.068115,1219.628540 1341.207153,1219.632690 
z"/>
<path fill="#3E1717" opacity="1.000000" stroke="none" 
	d="
M1169.914307,1023.792908 
	C1170.376709,1025.192871 1170.544800,1027.091187 1169.958740,1028.717773 
	C1166.933838,1037.113892 1162.535278,1045.197510 1160.758789,1053.831055 
	C1150.182129,1105.231689 1140.290405,1156.772827 1129.984863,1208.229858 
	C1119.608765,1260.039551 1108.908081,1311.784058 1098.550537,1363.597412 
	C1086.240845,1425.174683 1074.186523,1486.803101 1061.941528,1548.393311 
	C1055.077271,1582.919434 1048.042847,1617.411743 1041.102417,1651.922607 
	C1037.959229,1667.552002 1034.659790,1683.153564 1031.795166,1698.834229 
	C1029.101685,1713.578979 1034.596924,1720.170654 1049.673706,1720.187866 
	C1097.991821,1720.242920 1146.310059,1720.099854 1195.616211,1719.955933 
	C1172.311646,1739.070312 1148.046387,1758.296265 1123.718384,1777.442383 
	C1105.135010,1792.067505 1086.348755,1806.437988 1067.909180,1821.241211 
	C1061.027832,1826.765381 1053.551025,1829.201416 1044.886353,1829.188354 
	C1000.910645,1829.122314 956.934814,1829.166870 912.959045,1829.165894 
	C911.627502,1829.165894 910.289429,1829.164062 908.965393,1829.042847 
	C896.377258,1827.891357 891.134277,1821.390503 893.182495,1808.937622 
	C894.694763,1799.743164 896.632446,1790.616943 898.459778,1781.476074 
	C927.042114,1638.500000 955.632507,1495.525635 984.232239,1352.552979 
	C996.899841,1289.226440 1009.730225,1225.932129 1022.188538,1162.564575 
	C1025.830078,1144.042480 1034.636597,1129.295776 1049.610352,1117.701660 
	C1089.640015,1086.706909 1129.403076,1055.368042 1169.914307,1023.792908 
z"/>
<path fill="#D12851" opacity="1.000000" stroke="none" 
	d="
M1620.911743,1294.065430 
	C1625.627563,1301.518311 1624.822021,1309.219604 1623.328979,1316.739990 
	C1613.881226,1364.329102 1604.228516,1411.877441 1594.676880,1459.445801 
	C1583.233276,1516.434692 1571.771240,1573.419922 1560.424072,1630.427979 
	C1555.951172,1652.900146 1551.906860,1675.457642 1547.402344,1697.923218 
	C1544.335938,1713.216431 1535.669312,1720.128784 1520.243896,1720.144775 
	C1475.933594,1720.190674 1431.623169,1720.198486 1387.312866,1720.218140 
	C1385.980713,1720.218750 1384.629639,1720.030640 1383.319336,1720.191040 
	C1370.944580,1721.705444 1364.069092,1710.989258 1366.514771,1699.220459 
	C1370.771851,1678.735474 1374.879517,1658.218872 1378.956665,1637.697144 
	C1388.793701,1588.182007 1398.523804,1538.645508 1408.398071,1489.137695 
	C1416.393799,1449.048584 1424.545288,1408.990723 1432.611938,1368.915771 
	C1440.999634,1327.244751 1449.722656,1285.636230 1457.561279,1243.862061 
	C1460.477783,1228.319092 1471.222046,1219.855591 1485.942261,1220.232666 
	C1492.267212,1220.394775 1498.641968,1219.887695 1504.915039,1220.497681 
	C1514.656738,1221.444946 1519.063843,1225.899048 1518.157959,1235.636475 
	C1516.993530,1248.152344 1514.309448,1260.526733 1512.348633,1273.806396 
	C1513.447998,1286.606079 1516.737549,1290.140381 1528.291260,1290.235474 
	C1553.501953,1290.442627 1578.718262,1290.125122 1603.925293,1290.497314 
	C1609.366089,1290.577637 1614.777344,1292.663330 1620.911743,1294.065430 
z"/>
<path fill="#D12952" opacity="1.000000" stroke="none" 
	d="
M1647.316406,1169.673950 
	C1608.756836,1169.933960 1570.806885,1170.106812 1532.856812,1170.224121 
	C1518.206543,1170.269409 1503.555054,1170.287476 1488.905884,1170.136719 
	C1474.754028,1169.991211 1469.370605,1163.905029 1471.864990,1150.176270 
	C1475.662354,1129.275513 1479.948486,1108.463623 1484.019775,1087.612671 
	C1486.753174,1073.613281 1489.387695,1059.593750 1492.249634,1045.620728 
	C1493.180420,1041.075928 1494.689209,1036.649536 1496.127197,1031.295288 
	C1503.013184,1023.022949 1511.389771,1020.261963 1521.287231,1020.296753 
	C1568.910767,1020.464050 1616.535156,1020.368530 1664.159302,1020.366394 
	C1664.825562,1020.366333 1665.492432,1020.346436 1666.157837,1020.370789 
	C1680.052246,1020.878906 1685.944214,1028.181519 1683.392822,1042.034180 
	C1681.646240,1051.516724 1679.621338,1060.947998 1677.705078,1070.399048 
	C1672.617310,1095.493408 1667.222046,1120.530640 1662.573853,1145.706055 
	C1660.702393,1155.841675 1656.467896,1163.854004 1647.316406,1169.673950 
z"/>
<path fill="#3E1718" opacity="1.000000" stroke="none" 
	d="
M1241.925293,1369.355957 
	C1220.661255,1370.058960 1199.682129,1370.280884 1178.705200,1370.152588 
	C1167.509521,1370.084229 1161.803467,1364.815552 1161.837158,1353.797119 
	C1161.863281,1345.227539 1162.905396,1336.573120 1164.415894,1328.120728 
	C1165.931641,1319.638062 1168.545898,1311.348511 1170.750488,1302.993042 
	C1175.057983,1286.668091 1183.172974,1280.264038 1199.972046,1280.217407 
	C1227.277222,1280.141479 1254.582642,1280.229614 1281.888062,1280.206055 
	C1305.530762,1280.185791 1329.173340,1280.106445 1353.818359,1279.998535 
	C1331.401611,1298.480835 1308.002441,1317.042725 1284.556396,1335.545288 
	C1270.479004,1346.654297 1256.328735,1357.670898 1241.925293,1369.355957 
z"/>
<path fill="#3E1718" opacity="1.000000" stroke="none" 
	d="
M2550.667480,1718.062744 
	C2551.096924,1717.461304 2552.219238,1716.776489 2554.067871,1715.985352 
	C2553.649902,1716.579224 2552.505127,1717.279419 2550.667480,1718.062744 
z"/>
<path fill="#3E1718" opacity="1.000000" stroke="none" 
	d="
M1685.999023,1243.903809 
	C1686.866821,1244.026001 1687.197632,1244.595825 1687.371460,1245.210205 
	C1687.413696,1245.359375 1686.939575,1245.654785 1686.210938,1245.863281 
	C1685.614136,1245.351807 1685.509155,1244.859863 1685.999023,1243.903809 
z"/>
<path fill="#3E1718" opacity="1.000000" stroke="none" 
	d="
M2175.989014,1243.919067 
	C2176.832520,1244.030396 2177.141602,1244.588867 2177.291016,1245.187378 
	C2177.331299,1245.349365 2176.888428,1245.632080 2176.192383,1245.855713 
	C2175.609863,1245.361694 2175.502441,1244.871460 2175.989014,1243.919067 
z"/>
<path fill="#FEFEFE" opacity="1.000000" stroke="none" 
	d="
M1987.407837,1588.021118 
	C1984.032959,1589.436523 1980.796021,1590.314819 1977.558716,1590.317017 
	C1884.335083,1590.382568 1791.111328,1590.360596 1697.887695,1590.351440 
	C1696.555908,1590.351318 1695.221802,1590.382812 1693.892578,1590.321167 
	C1681.388550,1589.742920 1677.218750,1584.906860 1678.679199,1570.765381 
	C1704.590942,1550.074341 1729.774536,1530.482056 1754.865723,1510.772339 
	C1772.096924,1497.236694 1789.199463,1483.537476 1806.359619,1469.911377 
	C1810.463867,1466.522583 1814.567993,1463.133667 1819.250977,1459.379883 
	C1859.473389,1459.064209 1899.117310,1459.059326 1938.760620,1459.203857 
	C1947.820923,1459.236938 1955.473145,1456.474731 1962.596924,1450.700928 
	C1979.672363,1436.860718 1997.138428,1423.502441 2014.464233,1409.972046 
	C2017.050903,1407.951904 2019.731445,1406.052002 2024.178711,1402.754395 
	C2011.706909,1465.507324 1999.626221,1526.291504 1987.407837,1588.021118 
z"/>
<path fill="#EEEBEB" opacity="1.000000" stroke="none" 
	d="
M1341.337158,1218.849731 
	C1335.068115,1219.628540 1328.928955,1219.624390 1322.185059,1219.036865 
	C1328.698975,1212.916992 1335.817749,1207.380371 1344.531372,1200.603271 
	C1343.253418,1207.886841 1342.360352,1212.976807 1341.337158,1218.849731 
z"/>
<path fill="#3E1717" opacity="1.000000" stroke="none" 
	d="
M2309.912109,1458.982544 
	C2316.084229,1439.598755 2318.684082,1419.559082 2321.147217,1399.462524 
	C2322.153076,1391.256226 2324.209473,1383.178223 2325.809082,1375.046021 
	C2326.065430,1373.743408 2326.295166,1372.409790 2326.769043,1371.179810 
	C2331.914062,1357.825684 2338.978027,1350.354492 2354.911621,1350.265991 
	C2376.881348,1350.144043 2398.852051,1350.228271 2420.822510,1350.228638 
	C2430.144043,1350.228760 2439.468750,1350.095825 2448.786621,1350.280151 
	C2464.131836,1350.583740 2469.934326,1357.872681 2466.957520,1372.636719 
	C2456.068359,1426.649658 2445.194580,1480.666016 2434.357178,1534.689453 
	C2432.071777,1546.081787 2430.132812,1557.545288 2427.733154,1568.912476 
	C2424.720703,1583.183838 2416.431641,1590.099976 2401.852051,1590.163330 
	C2370.894531,1590.297974 2339.935547,1590.151123 2308.136719,1589.161255 
	C2311.900146,1565.076782 2316.507812,1541.951538 2321.106689,1518.824707 
	C2323.827637,1505.142578 2326.768311,1491.498779 2329.170898,1477.760864 
	C2330.967041,1467.490723 2325.991699,1461.001099 2315.873535,1459.437744 
	C2313.909912,1459.134277 2311.900391,1459.126587 2309.912109,1458.982544 
z"/>
<path fill="#FDFDFD" opacity="1.000000" stroke="none" 
	d="
M2309.304932,1459.315918 
	C2311.900391,1459.126587 2313.909912,1459.134277 2315.873535,1459.437744 
	C2325.991699,1461.001099 2330.967041,1467.490723 2329.170898,1477.760864 
	C2326.768311,1491.498779 2323.827637,1505.142578 2321.106689,1518.824707 
	C2316.507812,1541.951538 2311.900146,1565.076782 2307.142090,1589.035034 
	C2278.519287,1590.026733 2250.050293,1590.214478 2221.581299,1590.332886 
	C2208.997070,1590.385254 2196.405029,1590.020874 2183.830078,1590.358521 
	C2173.421143,1590.638062 2164.842285,1582.827881 2168.641846,1570.807739 
	C2196.904297,1548.254639 2224.464355,1526.815186 2251.930664,1505.256714 
	C2266.815430,1493.573730 2281.541016,1481.687744 2296.338135,1469.893433 
	C2300.458008,1466.478638 2304.577881,1463.063965 2309.304932,1459.315918 
z"/>
<path fill="#411919" opacity="1.000000" stroke="none" 
	d="
M2295.374756,1469.953369 
	C2281.541016,1481.687744 2266.815430,1493.573730 2251.930664,1505.256714 
	C2224.464355,1526.815186 2196.904297,1548.254639 2168.744141,1569.967773 
	C2169.445801,1562.371460 2170.592285,1554.512085 2172.166016,1546.739258 
	C2175.843262,1528.573120 2179.999512,1510.500122 2183.431641,1492.289551 
	C2185.844971,1479.486084 2192.257568,1470.557983 2211.750000,1470.298462 
	C2233.324951,1470.010986 2254.906006,1470.212891 2276.484375,1470.177124 
	C2282.459961,1470.167114 2288.435791,1470.070190 2295.374756,1469.953369 
z"/>
<path fill="#401919" opacity="1.000000" stroke="none" 
	d="
M1805.395752,1469.997070 
	C1789.199463,1483.537476 1772.096924,1497.236694 1754.865723,1510.772339 
	C1729.774536,1530.482056 1704.590942,1550.074341 1678.811035,1569.924316 
	C1680.767456,1556.150024 1683.259155,1542.148315 1685.982178,1528.191895 
	C1688.328491,1516.166016 1690.760254,1504.150879 1693.475830,1492.204102 
	C1696.980347,1476.786011 1705.090210,1470.276978 1720.766113,1470.206177 
	C1748.654297,1470.080200 1776.543213,1470.115234 1805.395752,1469.997070 
z"/>
</svg>